# xmcd
#
# Track frame offsets: 
#        150
#        26083
#        48811
#        70732
#        88887
#        103756
#        128308
#        157910
#        175485
#        192808
#        209948
#
# Disc length: 3192 seconds
#
# Revision: 0
# Processed by: cddbd v1.5.1PL2 Copyright (c) Steve Scherf et al.
# Submitted via: ExactAudioCopy v0.95a5
#
DISCID=940c760b
DTITLE=Лесик Бэнд - Блюз для Фраерив
DYEAR=1900
DGENRE=Rock
TTITLE0=Хроника
TTITLE1=Колима
TTITLE2=Полтергейст
TTITLE3=Весна Застоя
TTITLE4=Випий за старого
TTITLE5=Ранне село
TTITLE6=Кривавий блюз
TTITLE7=Мудрий вуйцьо
TTITLE8=Колискова
TTITLE9=Цегейкова Шуба
TTITLE10=Гроши
EXTD=
EXTT0=Хроника
EXTT1=
EXTT2=
EXTT3=
EXTT4=
EXTT5=
EXTT6=
EXTT7=
EXTT8=
EXTT9=
EXTT10=
PLAYORDER=
